<svg xmlns="http://www.w3.org/2000/svg" width="254" height="44" viewBox="0 0 254 44"><defs><style>.a{fill:#7ba620;}.b{fill:#605e60;}.c{fill:#9bad0d;}.d{fill:#a5a2a2;}</style></defs><g transform="translate(-6.616 -4.658)"><path class="a" d="M204.262,45.369h-2.468c-.446,1.71-.669,2.532-.827,3.211h-.906l2.205-8.6a.774.774,0,0,1,1.523-.013l2.245,8.616H205.1Zm-1.195-5.1-1.076,4.269h2.061Zm-.026-.117.026.117a.117.117,0,0,1,.013-.065Z"/><path class="a" d="M208.883,43.541h1.654a.7.7,0,0,1,.748.718v2.271a2.209,2.209,0,0,1-2.415,2.128,2.234,2.234,0,0,1-2.442-2.18v-5a2.2,2.2,0,0,1,2.415-2.154,2.33,2.33,0,0,1,2.415,2.389h-.866a1.489,1.489,0,0,0-1.549-1.54,1.408,1.408,0,0,0-1.575,1.305v5a1.45,1.45,0,0,0,1.6,1.332,1.408,1.408,0,0,0,1.562-1.279V44.377h-1.549Z"/><path class="a" d="M216.549,40.291l-3.177.026v3.159H216.4v.849h-3.032v2.141a1.283,1.283,0,0,0,1.247,1.266h1.93v.849h-1.93a2.141,2.141,0,0,1-2.1-2.115V40.186a.765.765,0,0,1,.761-.744h3.269Zm-1.93-2.076c-.157.1-.341.261-.525.392s-.446.339-.564.431l-.5-.653,1.3-.953a.414.414,0,0,1,.578,0c.118.091.289.209.459.339a6.5,6.5,0,0,1,.788.6l-.538.613Z"/><path class="a" d="M221.865,47.705l-.2-1.214-.066-7.049h.853v8.5a.592.592,0,0,1-.591.64.662.662,0,0,1-.578-.4c-.971-2.389-2.048-5.313-2.98-7.741l.171,1.345v6.8h-.84V40.069a.623.623,0,0,1,.63-.666.6.6,0,0,1,.6.457l-.013-.026Z"/><path class="a" d="M228.508,46.256a2.348,2.348,0,0,1-2.415,2.4,2.2,2.2,0,0,1-2.415-2.167V41.5a2.19,2.19,0,0,1,2.4-2.167,2.358,2.358,0,0,1,2.428,2.4h-.879a1.49,1.49,0,0,0-1.536-1.554A1.405,1.405,0,0,0,224.53,41.5v4.987a1.42,1.42,0,0,0,1.562,1.318,1.49,1.49,0,0,0,1.536-1.554Z"/><path class="a" d="M229.82,48.58V39.442h.866V48.58Z"/><path class="a" d="M236.108,45.369H233.64c-.446,1.71-.669,2.532-.827,3.211h-.906l2.205-8.6a.774.774,0,0,1,1.523-.013l2.245,8.616h-.932Zm-1.194-5.1-1.076,4.269H235.9Zm-.026-.117.026.117a.117.117,0,0,1,.013-.065Z"/><path class="a" d="M245.9,43.881l-.039-1.071h-.079l-.053,1.057c-.131.888-.223,1.814-.341,2.689-.066.483-.131.953-.184,1.384a.7.7,0,0,1-.643.653.762.762,0,0,1-.683-.64c-.131-.744-.289-1.5-.446-2.3-.105-.587-.223-1.188-.341-1.8-.079-.418-.157-.848-.249-1.292-.2-1.018-.42-2.206-.591-3.12h.853c.184.888.407,2.01.578,2.924.184.953.394,2.193.578,3.264.053.4.105.8.171,1.175l.092.979h.053l.053-.979c.092-.64.144-1.332.236-2,.105-.744.21-1.553.315-2.245a.625.625,0,0,1,.643-.457.654.654,0,0,1,.656.392l.578,4.308.053.979h.053l.079-.94c.433-2.467.853-4.974,1.286-7.4h.893l-1.654,8.5c-.092.418-.368.666-.656.666s-.564-.248-.63-.679Z"/><path class="a" d="M254.394,40.291l-3.177.026v3.159h3.032v.849h-3.032v2.141a1.283,1.283,0,0,0,1.247,1.266h1.93v.849h-1.93a2.141,2.141,0,0,1-2.1-2.115V40.186a.765.765,0,0,1,.761-.744h3.269Z"/><path class="a" d="M259.317,43.659a1.712,1.712,0,0,1,1.3,1.736V46.5a2.177,2.177,0,0,1-2.074,2.089h-2.048a.688.688,0,0,1-.735-.757v-7.65a.691.691,0,0,1,.735-.744h1.877a2.112,2.112,0,0,1,2.1,2.1v.47A1.622,1.622,0,0,1,259.317,43.659Zm-2.822-3.368h.105v-.1Zm.105,7.454h-.079a.1.1,0,0,1,.079.091Zm0-7.454v2.963h1.917a1.167,1.167,0,0,0,1.1-1.24v-.47a1.254,1.254,0,0,0-1.247-1.253Zm3.164,6.214v-1.11a1.269,1.269,0,0,0-1.247-1.279H256.6v3.629h1.943A1.293,1.293,0,0,0,259.763,46.5Z"/><path class="b" d="M63.538,5.051a7.729,7.729,0,0,1,7.942,7.986H68.6a4.921,4.921,0,0,0-5.058-5.118c-2.618,0-5.147,1.5-5.147,4.324v2.6c0,3,2.928,3.75,5.457,4.28,3.549.706,7.631,1.721,7.631,6.971v3.265c0,4.809-4.082,7.236-8.03,7.236a7.587,7.587,0,0,1-7.9-8.03h2.839a4.871,4.871,0,0,0,5.058,5.118c2.573,0,5.147-1.5,5.147-4.324V26.1c0-3.089-2.706-3.706-5.368-4.148-3.771-.75-7.631-1.588-7.675-7.1v-2.6C55.552,7.478,59.457,5.051,63.538,5.051Z"/><path class="b" d="M73.476,12.375c0-4.809,4.037-7.236,8.164-7.236,4.082,0,8.164,2.427,8.164,7.236v16.9c0,4.853-4.082,7.28-8.164,7.28-4.126,0-8.164-2.427-8.164-7.28Zm2.839,16.9c0,2.912,2.618,4.412,5.324,4.412,2.662,0,5.28-1.5,5.28-4.412v-16.9c0-2.868-2.618-4.368-5.28-4.368-2.706,0-5.324,1.5-5.324,4.368Z"/><path class="b" d="M94.772,5.36h6.211a6.883,6.883,0,0,1,7.1,7.06v4.721c0,2.162-2.085,5.339-4.792,5.692,2.973.4,4.925,3.574,4.925,5.78V36.29h-2.884V28.613c0-2.471-2.884-4.324-5.191-4.324H95.083v12h-2.84V7.919A2.427,2.427,0,0,1,94.772,5.36Zm.311,2.868V8.051c-.044.088-.089.176-.222.176Zm0,0V21.42h5.058c2.307,0,5.058-1.853,5.058-4.28V12.419a4.173,4.173,0,0,0-4.215-4.192Z"/><path class="b" d="M110.167,12.375c0-4.809,4.037-7.236,8.163-7.236,4.082,0,8.164,2.427,8.164,7.236v16.9c0,4.853-4.082,7.28-8.164,7.28-4.126,0-8.163-2.427-8.163-7.28Zm2.839,16.9c0,2.912,2.618,4.412,5.324,4.412,2.662,0,5.28-1.5,5.28-4.412v-16.9c0-2.868-2.618-4.368-5.28-4.368-2.706,0-5.324,1.5-5.324,4.368Z"/><path class="b" d="M145.262,28.436a7.936,7.936,0,0,1-8.164,8.119c-4.17,0-8.164-2.427-8.164-7.324V12.375c0-4.9,3.949-7.324,8.119-7.324a7.972,7.972,0,0,1,8.208,8.119h-2.973A5.036,5.036,0,0,0,137.1,7.919c-2.706,0-5.28,1.544-5.28,4.456V29.23c.044,2.912,2.618,4.456,5.28,4.456a5.036,5.036,0,0,0,5.191-5.251Z"/><path class="b" d="M159.593,25.436h-8.341c-1.509,5.78-2.263,8.56-2.8,10.854H145.4l7.454-29.077A2.617,2.617,0,0,1,158,7.169l7.587,29.121h-3.15ZM155.555,8.184l-3.638,14.428h6.966Z"/><path class="b" d="M178.8,19.656c3.061.529,4.392,3.618,4.392,5.868v3.75a7.359,7.359,0,0,1-7.01,7.06h-6.921a2.326,2.326,0,0,1-2.485-2.559V7.919A2.334,2.334,0,0,1,169.265,5.4h6.344a7.138,7.138,0,0,1,7.1,7.1V14.1C182.708,15.993,181.732,19.038,178.8,19.656Zm-9.184,13.81h-.266a.331.331,0,0,1,.266.309Zm0-25.194V18.288H176.1a3.944,3.944,0,0,0,3.727-4.192V12.508a4.239,4.239,0,0,0-4.215-4.236Zm10.692,21v-3.75A4.287,4.287,0,0,0,176.1,21.2h-6.478V33.466h6.566A4.369,4.369,0,0,0,180.312,29.274Z"/><path class="b" d="M197.881,25.436H189.54c-1.508,5.78-2.263,8.56-2.8,10.854h-3.061l7.454-29.077a2.617,2.617,0,0,1,5.147-.044l7.587,29.121h-3.15ZM193.844,8.184l-3.638,14.428h6.966Zm-.089-.4.089.4a.4.4,0,0,1,.044-.221Z"/><path class="b" d="M220.642,28.436a7.936,7.936,0,0,1-8.163,8.119c-4.171,0-8.164-2.427-8.164-7.324V12.375c0-4.9,3.949-7.324,8.119-7.324a7.972,7.972,0,0,1,8.208,8.119h-2.973a5.036,5.036,0,0,0-5.191-5.251c-2.706,0-5.28,1.544-5.28,4.456V29.23c.044,2.912,2.618,4.456,5.28,4.456a5.036,5.036,0,0,0,5.191-5.251Z"/><path class="b" d="M222.949,12.375c0-4.809,4.037-7.236,8.164-7.236,4.082,0,8.163,2.427,8.163,7.236v16.9c0,4.853-4.082,7.28-8.163,7.28-4.126,0-8.164-2.427-8.164-7.28Zm2.84,16.9c0,2.912,2.618,4.412,5.324,4.412,2.662,0,5.28-1.5,5.28-4.412v-16.9c0-2.868-2.618-4.368-5.28-4.368-2.706,0-5.324,1.5-5.324,4.368Z"/><path class="b" d="M257.732,14.052l.311-4.015-5.058,15.222a2.093,2.093,0,0,1-1.952,1.412,2.23,2.23,0,0,1-1.908-1.28l-4.88-15.664.311,4.324V36.29h-2.839V7.7c-.044-3,3.993-2.956,4.614-.574,1.908,5.78,2.973,10.678,4.659,16.458,1.819-5.427,3.283-11.339,5.013-16.59.843-2.515,4.481-2.427,4.614.618V36.29h-2.839v-.176h-.044Z"/><path class="c" d="M34.5,21.819a7.644,7.644,0,0,1-6.142-3.434,3.667,3.667,0,0,1-.681-2.52,2.818,2.818,0,0,1,2.619-2.39,7.546,7.546,0,0,1,7.17,3.748,3.393,3.393,0,0,1,.4,2.42,2.791,2.791,0,0,1-2.434,2.082A3.973,3.973,0,0,1,34.5,21.819Z"/><path class="d" d="M19.122,34.462a5.535,5.535,0,0,1-3.74-1.955,3.551,3.551,0,0,1,.959-5.295,5.525,5.525,0,0,1,6.8.8,3.632,3.632,0,0,1,.65,4.315A4.6,4.6,0,0,1,19.122,34.462Z"/><path class="d" d="M10.406,12.7a6.141,6.141,0,0,1,4.336,1.731,2.1,2.1,0,0,1,.38,2.707A3.188,3.188,0,0,1,13.54,18.26a6.35,6.35,0,0,1-6.184-1.383,2.136,2.136,0,0,1-.082-3.156A4.04,4.04,0,0,1,9.4,12.784,4.178,4.178,0,0,1,10.406,12.7Z"/><path class="d" d="M38.3,38.428c-.107.01-.217.025-.326.025a2.713,2.713,0,0,1-.3-.025,4.39,4.39,0,0,1-3.738-3.774,2.818,2.818,0,0,1,1.693-3.133,3.15,3.15,0,0,1,2.688.229,4.28,4.28,0,0,1,2.458,3.94A2.7,2.7,0,0,1,38.3,38.428Z"/><path class="d" d="M18.332,9.005a5.615,5.615,0,0,1-4.143-1.857,1.366,1.366,0,0,1-.163-1.83,2.054,2.054,0,0,1,1.536-.63,5.621,5.621,0,0,1,4.366,1.618,1.711,1.711,0,0,1,.6,1.514,1.25,1.25,0,0,1-.867.952A2.954,2.954,0,0,1,18.332,9.005Z"/><path class="d" d="M49.637,29.378a2.25,2.25,0,0,1,.02.332,2.363,2.363,0,0,1-.02.294,1.513,1.513,0,0,1-1.891,1.3c-1.651-.252-3.5-2.216-3.251-4.073a1.433,1.433,0,0,1,1.318-1.249,3.694,3.694,0,0,1,3.265,1.933A3.276,3.276,0,0,1,49.637,29.378Z"/><path class="d" d="M25.809,21.579A3.41,3.41,0,0,1,28.48,22.91a1.793,1.793,0,0,1-1.064,2.965,3.276,3.276,0,0,1-3.594-1.7,1.708,1.708,0,0,1,1.111-2.448A2.33,2.33,0,0,1,25.809,21.579Z"/><path class="d" d="M20.781,15.172a3.555,3.555,0,0,1,2.775,1.219,1.441,1.441,0,0,1-.676,2.47,3.7,3.7,0,0,1-3.737-1.167,1.466,1.466,0,0,1-.276-1.616,1.768,1.768,0,0,1,1.488-.9A3.447,3.447,0,0,1,20.781,15.172Z"/><path class="d" d="M34.092,24.734a3.006,3.006,0,0,1,2.776,1.982,1.656,1.656,0,0,1-1.74,2.273,3.106,3.106,0,0,1-2.653-2.009A1.6,1.6,0,0,1,34.092,24.734Z"/><path class="d" d="M27.218,4.658a4.273,4.273,0,0,1,3.233,1.714,1.049,1.049,0,0,1,.216,1.149,1.061,1.061,0,0,1-1.05.532,4.214,4.214,0,0,1-3.476-1.778.986.986,0,0,1-.157-1.152,1.093,1.093,0,0,1,1.04-.465Z"/><path class="d" d="M47.6,21.044a3.6,3.6,0,0,1-3.1-2.789.946.946,0,0,1,1.128-1.1,3.709,3.709,0,0,1,3.035,2.563A.973.973,0,0,1,47.6,21.044Z"/><path class="d" d="M23.825,10.156a3.506,3.506,0,0,1,2.707,1.272,1.105,1.105,0,0,1-.758,1.94,3.416,3.416,0,0,1-3.131-1.246,1.153,1.153,0,0,1-.265-1.284,1.333,1.333,0,0,1,1.177-.681A1.849,1.849,0,0,1,23.825,10.156Z"/><path class="d" d="M42.571,24.724a1.109,1.109,0,0,1-1.08,1.175,2.874,2.874,0,0,1-2.817-2.457,1.128,1.128,0,0,1,1.1-1.235A2.853,2.853,0,0,1,42.571,24.724Z"/><path class="d" d="M41.015,12.4a3.752,3.752,0,0,1-3-2.073.832.832,0,0,1,.917-1.218,3.525,3.525,0,0,1,2.94,1.925C42.305,11.831,41.925,12.4,41.015,12.4Z"/><path class="d" d="M40.6,16.947a2.776,2.776,0,0,1,2.4,1.89.866.866,0,0,1-.841,1.119,2.7,2.7,0,0,1-2.538-2.049C39.549,17.343,39.956,16.946,40.6,16.947Z"/><path class="d" d="M31.624,11.7a2.7,2.7,0,0,1-.305-.045,2.957,2.957,0,0,1-1.422-.747A1.836,1.836,0,0,1,29.261,9.8c-.036-.572.5-.8.992-.809a2.982,2.982,0,0,1,1.809.591,2.139,2.139,0,0,1,.908,1.278C33.064,11.6,32.183,11.755,31.624,11.7Z"/><path class="d" d="M36.959,11.617a2.647,2.647,0,0,1,2.106,1.474c.341.7-.009,1.255-.869,1.193a2.662,2.662,0,0,1-2.126-1.311.917.917,0,0,1-.1-.986C36.156,11.667,36.474,11.613,36.959,11.617Z"/></g></svg>